<svg width="50" height="50" viewBox="0 0 50 50" fill="none" xmlns="http://www.w3.org/2000/svg">
<path d="M37.0139 50.0018H1.08462C0.344827 49.6423 0 49.0847 0 48.2288C0.0146735 33.713 0.00978234 19.1972 0.0110051 4.68146C0.0110051 3.47579 0.560039 2.93287 1.77672 2.93164C4.91685 2.93164 8.05698 2.93164 11.1971 2.93164C11.3683 2.93164 11.5383 2.93164 11.7278 2.93164C11.7278 2.41685 11.7205 1.97787 11.729 1.54011C11.7486 0.615676 12.3404 0.00794815 13.2661 0.00550256C17.1215 -0.00183419 20.9782 -0.00183419 24.8337 0.00550256C25.7581 0.00794815 26.3512 0.615676 26.3707 1.54011C26.3805 1.99009 26.372 2.4413 26.372 2.93164H26.9516C30.0269 2.93164 33.101 2.93164 36.1763 2.93164C37.5935 2.93164 38.0888 3.42321 38.0888 4.8282C38.0888 19.2302 38.0839 33.6311 38.1022 48.0331C38.1022 48.9404 37.8613 49.6117 37.0151 50.0018H37.0139ZM26.372 5.88591C26.372 6.33957 26.3756 6.75898 26.372 7.17963C26.361 8.19699 25.7777 8.7876 24.7615 8.78882C20.9538 8.79371 17.1472 8.79371 13.3394 8.78882C12.3233 8.7876 11.74 8.19576 11.729 7.1784C11.7241 6.74676 11.729 6.31511 11.729 5.88591H2.96894V47.0365H35.1345V5.88591H26.3707H26.372ZM14.6784 5.82722H23.4042V2.95732H14.6784V5.82722Z" fill="white"/>
<path d="M49.9989 6.9363V48.9282C49.6406 49.2865 49.2824 49.6448 48.9253 50.0018H42.2868C41.4418 49.6117 41.1985 48.9404 41.1997 48.0331C41.2181 34.6069 41.2095 21.1818 41.2266 7.75557C41.2266 7.27256 41.355 6.75165 41.5629 6.31389C42.3626 4.62522 43.2283 2.96833 44.05 1.29066C44.3802 0.616905 44.7568 0.0140686 45.6042 0.0140686C46.4516 0.0140686 46.8282 0.61446 47.1608 1.28822C48.095 3.17743 49.0513 5.05442 50.0001 6.9363H49.9989ZM47.0361 41.1904V11.858H44.1662V41.1904H47.0361ZM44.1662 44.1642V47.0427H47.0349V44.1642H44.1662ZM44.1674 8.85852H47.0398C47.1168 8.17498 47.085 7.55747 46.7243 6.96197C46.3733 6.38115 46.108 5.74896 45.8011 5.14124C45.7485 5.0373 45.6727 4.94559 45.5443 4.75483C45.0919 6.18917 43.8886 7.24077 44.1674 8.85975V8.85852Z" fill="white"/>
<path d="M11.7276 35.354C13.1265 35.354 14.5266 35.3503 15.9254 35.354C17.0039 35.3576 17.5811 35.9348 17.5835 37.0145C17.5872 38.8377 17.5884 40.6597 17.5835 42.4829C17.5811 43.5614 17.0039 44.1397 15.923 44.141C13.124 44.1446 10.3263 44.1446 7.5273 44.141C6.4488 44.1397 5.87164 43.5614 5.86919 42.4804C5.86552 40.6572 5.8643 38.8353 5.86919 37.0121C5.87164 35.9336 6.4488 35.3576 7.52975 35.354C8.92862 35.3491 10.3287 35.354 11.7276 35.354ZM14.6232 41.1891V38.3193H8.81979V41.1891H14.6232Z" fill="white"/>
<path d="M10.2776 17.1441C10.7716 16.6171 11.1934 16.1463 11.6373 15.6976C12.7586 14.5653 13.8799 13.4317 15.0208 12.319C15.9049 11.4569 17.2243 11.7846 17.5312 12.9243C17.6755 13.4599 17.5287 13.9331 17.1509 14.3146C15.2018 16.276 13.2526 18.2373 11.2839 20.1779C10.6725 20.7807 9.84837 20.7673 9.22719 20.1669C8.23306 19.2058 7.25483 18.2288 6.29616 17.2322C5.7031 16.6147 5.73367 15.7416 6.31083 15.1742C6.88799 14.6068 7.74761 14.5958 8.37001 15.1926C8.99119 15.7881 9.57569 16.4227 10.2776 17.1454V17.1441Z" fill="white"/>
<path d="M10.249 28.8145C11.8069 27.2517 13.2975 25.755 14.7905 24.2608C14.9397 24.1116 15.0888 23.9588 15.2564 23.8328C15.8543 23.3877 16.6516 23.4562 17.1651 23.9869C17.6665 24.5054 17.7215 25.2757 17.2899 25.8614C17.1847 26.0045 17.0563 26.1329 16.9304 26.2588C15.1255 28.0661 13.3207 29.8722 11.5146 31.677C10.6367 32.5538 9.88097 32.5501 8.99689 31.6685C8.11037 30.7844 7.21284 29.9101 6.34466 29.0077C5.49359 28.1236 5.8531 26.7932 7.00252 26.512C7.5809 26.3701 8.05534 26.5804 8.45764 26.9888C9.03847 27.5782 9.61685 28.1701 10.2478 28.8157L10.249 28.8145Z" fill="white"/>
<path d="M26.335 17.6785C25.0498 17.6785 23.7647 17.6785 22.4795 17.6785C21.2115 17.6785 20.5255 17.1711 20.5181 16.2259C20.5096 15.2757 21.2017 14.7487 22.455 14.7487C25.0584 14.7487 27.6617 14.7487 30.2638 14.7487C31.5318 14.7487 32.2178 15.2562 32.2252 16.2014C32.2337 17.1625 31.5404 17.6785 30.2393 17.6785C28.9383 17.6785 27.636 17.6785 26.335 17.6785Z" fill="white"/>
<path d="M26.3841 26.4667C27.7182 26.4667 29.0522 26.4667 30.3863 26.4667C31.548 26.4667 32.2339 27.0182 32.2266 27.9439C32.218 28.8536 31.5418 29.3965 30.4108 29.3965C27.7267 29.3965 25.0415 29.3965 22.3575 29.3965C21.1958 29.3965 20.5098 28.8451 20.5171 27.9194C20.5257 26.9938 21.2007 26.4667 22.3819 26.4667C23.716 26.4667 25.05 26.4667 26.3841 26.4667Z" fill="white"/>
<path d="M26.3718 41.2124C24.9729 41.2124 23.5741 41.2148 22.174 41.2124C21.1811 41.2099 20.5171 40.6193 20.5171 39.7487C20.5171 38.8793 21.1798 38.2862 22.174 38.285C24.9717 38.2813 27.7707 38.2813 30.5684 38.285C31.5613 38.285 32.2253 38.8781 32.2253 39.7487C32.2253 40.6181 31.5626 41.2099 30.5684 41.2124C29.1696 41.216 27.7707 41.2124 26.3706 41.2124H26.3718Z" fill="white"/>
</svg>
