<svg width="50" height="50" viewBox="0 0 50 50" fill="none" xmlns="http://www.w3.org/2000/svg">
<path d="M21.7792 50.0078C21.0699 49.7559 20.6957 49.2423 20.5538 48.5134C20.4389 47.924 20.2946 47.3382 20.1173 46.7647C20.0622 46.5886 19.8776 46.3648 19.7113 46.3232C17.57 45.779 15.5485 44.9499 13.6616 43.8016C13.4256 43.6585 13.2617 43.6915 13.0477 43.8273C12.5268 44.1587 11.9923 44.4705 11.4604 44.7836C10.6056 45.2862 10.0076 45.2189 9.31053 44.5268C8.02893 43.2537 6.75223 41.977 5.47919 40.6954C4.80171 40.0131 4.72711 39.409 5.20526 38.5859C5.52444 38.0381 5.84484 37.4902 6.18725 36.957C6.32666 36.7394 6.34623 36.5755 6.20437 36.3431C5.05852 34.455 4.22939 32.4335 3.6852 30.291C3.64362 30.1259 3.41616 29.9437 3.23884 29.8899C2.60171 29.6991 1.94746 29.5646 1.303 29.3995C0.418842 29.1745 0.0103946 28.667 0.00550304 27.7621C-0.00183435 25.9228 -0.00183435 24.0848 0.00550304 22.2456C0.00917173 21.3419 0.420065 20.8368 1.30544 20.6106C1.95113 20.4467 2.60416 20.3122 3.24129 20.1202C3.41861 20.0676 3.64362 19.8817 3.6852 19.7166C4.22939 17.5741 5.05852 15.5539 6.20559 13.6657C6.34745 13.4309 6.32177 13.2671 6.18358 13.0518C5.84239 12.5174 5.52077 11.9708 5.20159 11.4229C4.732 10.6146 4.79682 10.0056 5.44617 9.34891C6.74 8.04163 8.03994 6.74169 9.34599 5.44786C10.0015 4.79851 10.6117 4.73369 11.42 5.20328C11.9679 5.52246 12.5145 5.84408 13.0489 6.18527C13.2654 6.32346 13.4292 6.34914 13.6628 6.20728C15.551 5.06021 17.5712 4.23108 19.7137 3.68689C19.8788 3.64531 20.0635 3.41908 20.1173 3.24298C20.3093 2.60585 20.4438 1.9516 20.6077 1.30591C20.8327 0.420533 21.3389 0.00963911 22.2427 0.00597042C24.0807 -0.00258986 25.9199 -0.00136697 27.7579 0.00597042C28.6629 0.00963911 29.1692 0.41931 29.3954 1.30346C29.5605 1.94915 29.695 2.6034 29.8858 3.24053C29.9396 3.41785 30.1218 3.64531 30.2869 3.68689C32.4294 4.23108 34.4496 5.06021 36.3378 6.20606C36.5701 6.34669 36.734 6.32713 36.9517 6.18772C37.4849 5.84531 38.0327 5.52491 38.5806 5.20573C39.3889 4.73492 40.0004 4.79851 40.6546 5.44664C41.9619 6.74047 43.2618 8.04041 44.5544 9.34768C45.205 10.0056 45.2711 10.6134 44.8027 11.4205C44.4847 11.9684 44.1619 12.515 43.8219 13.0494C43.6862 13.2634 43.6532 13.4273 43.7962 13.6633C44.9433 15.5514 45.7724 17.5717 46.3166 19.7142C46.3582 19.8805 46.582 20.0652 46.7581 20.1202C47.3304 20.2987 47.9174 20.443 48.5056 20.558C49.2345 20.6998 49.7481 21.0753 50 21.7833V28.2292C49.7481 28.9385 49.2357 29.3127 48.5056 29.4546C47.9162 29.5695 47.3304 29.7138 46.7581 29.8911C46.5808 29.9462 46.3582 30.1308 46.3154 30.2959C45.7712 32.4372 44.9421 34.4587 43.795 36.3456C43.6519 36.5804 43.6813 36.7443 43.8183 36.9595C44.1594 37.4939 44.4811 38.0405 44.799 38.5884C45.2686 39.3955 45.2038 40.0057 44.5544 40.6612C43.2618 41.9685 41.9619 43.2684 40.6546 44.561C39.9979 45.2104 39.3889 45.2752 38.5818 44.8056C38.0339 44.4876 37.4873 44.1648 36.9529 43.8236C36.7377 43.6866 36.5738 43.6573 36.339 43.8004C34.4521 44.9475 32.4319 45.7766 30.2906 46.3208C30.1242 46.3623 29.9408 46.5861 29.8858 46.7635C29.7085 47.3358 29.5629 47.9228 29.4492 48.511C29.3074 49.2398 28.9319 49.7534 28.2239 50.0054H21.7792V50.0078ZM10.7756 41.7777C11.3112 41.4561 11.8529 41.1577 12.3678 40.8177C13.0771 40.3481 13.7435 40.364 14.4504 40.841C16.5379 42.251 18.8259 43.1889 21.2986 43.6646C22.0923 43.8175 22.5667 44.2639 22.7392 45.0526C22.8639 45.6237 22.9923 46.196 23.1586 46.7561C23.1978 46.8882 23.3983 47.0606 23.5279 47.0643C24.5038 47.09 25.4809 47.0692 26.4568 47.0839C26.7307 47.0887 26.8163 46.9762 26.8677 46.7304C26.9863 46.1581 27.1416 45.5931 27.27 45.022C27.4437 44.2541 27.9145 43.8138 28.6849 43.6659C31.1588 43.1926 33.4481 42.2595 35.5356 40.8495C36.2387 40.375 36.9015 40.3359 37.6169 40.8092C38.1538 41.1638 38.7212 41.4732 39.1981 41.7569C40.075 40.8777 40.8992 40.0522 41.7479 39.2011C41.485 38.7596 41.2245 38.2496 40.8968 37.7886C40.3208 36.9766 40.3599 36.2343 40.92 35.4113C42.2896 33.3972 43.1775 31.1691 43.6409 28.7807C43.8072 27.9235 44.2622 27.4258 45.1157 27.2509C45.7651 27.1176 46.4059 26.9415 47.0687 26.7801C47.0687 25.6538 47.0785 24.5642 47.054 23.4758C47.0516 23.3645 46.8694 23.1958 46.7398 23.1591C46.1625 22.994 45.5756 22.8619 44.9886 22.7274C44.2402 22.5562 43.8048 22.0927 43.6629 21.3431C43.1848 18.8349 42.2297 16.52 40.805 14.4031C40.3501 13.7281 40.3489 13.0849 40.7891 12.4062C41.1413 11.8632 41.4568 11.2958 41.7295 10.8384C40.8515 9.95791 40.0175 9.12267 39.1664 8.26909C38.7053 8.54546 38.1746 8.83284 37.6769 9.16914C36.9382 9.66686 36.2522 9.64729 35.5111 9.14591C33.4395 7.74447 31.1613 6.81873 28.7045 6.34669C27.9108 6.19383 27.4351 5.74747 27.2627 4.95871C27.1379 4.38761 27.0095 3.8153 26.8432 3.25521C26.8041 3.12314 26.6035 2.95071 26.4739 2.94704C25.498 2.92136 24.5209 2.94215 23.5451 2.92747C23.2724 2.92258 23.1843 3.03386 23.1329 3.28089C23.018 3.83731 22.8615 4.38517 22.7416 4.94159C22.5729 5.72791 22.1106 6.19139 21.3145 6.34425C18.8406 6.81873 16.5513 7.75303 14.4638 9.1618C13.7607 9.63629 13.0978 9.67542 12.3824 9.20338C11.8456 8.84874 11.2782 8.53935 10.8012 8.25564C9.92442 9.13368 9.10019 9.96036 8.2515 10.8103C8.51565 11.2517 8.77612 11.7605 9.10386 12.2227C9.67984 13.0347 9.64071 13.777 9.08062 14.6C7.71098 16.6141 6.82316 18.8423 6.35968 21.2306C6.19336 22.0878 5.73845 22.5855 4.88486 22.7604C4.23551 22.8937 3.59471 23.0698 2.93067 23.2312C2.93067 24.3575 2.92089 25.4459 2.94535 26.5343C2.94779 26.6456 3.13001 26.8143 3.25841 26.8522C3.81972 27.0137 4.39081 27.1445 4.96191 27.2705C5.72744 27.4392 6.18603 27.8941 6.334 28.6682C6.8146 31.1752 7.76723 33.4913 9.19435 35.607C9.63582 36.2612 9.6615 36.8935 9.23471 37.5612C8.87762 38.1212 8.54989 38.6984 8.22949 39.2353C9.08919 40.0938 9.91586 40.9205 10.7731 41.7765L10.7756 41.7777Z" fill="white"/>
<path d="M25.0028 35.2609C21.2118 35.2609 17.4208 35.2499 13.6298 35.2707C12.8496 35.2743 12.3238 34.9784 11.8799 34.3449C9.54535 31.0052 8.54869 27.3084 9.00116 23.2691C9.50377 18.7713 11.5692 15.0892 15.1413 12.3022C18.541 9.65095 22.4286 8.55523 26.705 8.99914C30.6367 9.40759 33.9752 11.0952 36.7035 13.9666C38.7322 16.103 40.0909 18.6148 40.7072 21.491C41.7308 26.2689 40.7904 30.6542 37.9202 34.6176C37.5644 35.1092 37.0654 35.267 36.4723 35.2658C32.6483 35.2572 28.8256 35.2609 25.0016 35.2609H25.0028ZM16.7617 14.7541C17.0906 15.061 17.4025 15.324 17.6825 15.6175C18.3184 16.2791 18.3368 17.1632 17.7461 17.7526C17.1554 18.3421 16.2701 18.3237 15.6121 17.6817C15.3138 17.3907 15.0582 17.0568 14.7622 16.7193C13.1346 18.7946 12.2076 21.008 11.908 23.5418C12.0975 23.5418 12.2577 23.5418 12.4179 23.5418C14.0554 23.5467 14.7549 23.9894 14.7451 25.0191C14.7366 26.0329 14.0432 26.4695 12.4412 26.4719C12.2712 26.4719 12.1012 26.4719 11.9129 26.4719C12.1526 28.4579 12.7701 30.2348 13.7692 31.8869C13.9698 32.2195 14.1814 32.3418 14.5715 32.3406C21.3879 32.3284 28.2055 32.3186 35.022 32.3504C35.7325 32.354 36.1128 32.1461 36.4515 31.5249C37.31 29.9498 37.8701 28.2965 38.0866 26.4719C37.6365 26.4719 37.2158 26.4792 36.7952 26.4707C35.8927 26.4523 35.2445 25.8238 35.2568 24.9873C35.269 24.1704 35.9074 23.5639 36.7878 23.5455C37.2085 23.537 37.6292 23.5443 38.0976 23.5443C37.7882 21.008 36.8685 18.786 35.2824 16.7792C34.9608 17.1082 34.6747 17.42 34.3677 17.7086C33.7184 18.3201 32.8526 18.3372 32.2668 17.7661C31.6688 17.1828 31.6761 16.2901 32.3084 15.6321C32.6006 15.3289 32.9333 15.0647 33.2745 14.759C31.2163 13.1423 29.0004 12.2092 26.4641 11.9145C26.4641 12.3731 26.469 12.7779 26.4641 13.1815C26.4495 14.095 25.8441 14.7443 25.0089 14.7492C24.1724 14.7541 23.5549 14.106 23.5377 13.1974C23.5304 12.7779 23.5365 12.3584 23.5365 11.9378C21.4625 12.0246 18.5679 13.2243 16.7604 14.7553L16.7617 14.7541Z" fill="white"/>
<path d="M25.0037 38.1909C25.9307 38.1909 26.8589 38.186 27.7858 38.1921C28.736 38.1995 29.3927 38.8036 29.3915 39.6572C29.3915 40.5107 28.7336 41.1149 27.7809 41.1185C25.9258 41.1246 24.0707 41.1246 22.2168 41.1185C21.2666 41.1149 20.6099 40.5071 20.6111 39.6535C20.6111 38.7999 21.269 38.1982 22.2216 38.1921C23.1486 38.186 24.0768 38.1909 25.0037 38.1909Z" fill="white"/>
<path d="M25.2438 20.5837C25.6083 20.6717 26.0925 20.7512 26.545 20.9138C26.8275 21.0153 26.9877 20.9664 27.176 20.7634C27.5086 20.4063 27.8621 20.0688 28.2081 19.724C29.0128 18.9217 29.8652 18.8288 30.5182 19.4708C31.1835 20.1226 31.0893 20.9897 30.2651 21.8163C29.9202 22.1624 29.5827 22.5158 29.2256 22.8485C29.0348 23.0258 28.9932 23.175 29.0899 23.4379C29.8077 25.3982 29.1302 27.515 27.4475 28.6499C25.7623 29.7847 23.533 29.6343 22.0081 28.1901C20.7032 26.955 20.2911 25.4031 20.8414 23.6837C21.3832 21.9912 22.584 20.9897 24.3462 20.6864C24.6018 20.6424 24.8623 20.6265 25.2426 20.5837H25.2438ZM26.4631 25.0191C26.4704 24.223 25.8125 23.5516 25.0152 23.5443C24.2191 23.537 23.5489 24.1949 23.5416 24.9922C23.5342 25.7883 24.1921 26.4597 24.9895 26.467C25.7856 26.4744 26.4557 25.8164 26.4631 25.0191Z" fill="white"/>
</svg>
