<svg width="50" height="44" viewBox="0 0 50 44" fill="none" xmlns="http://www.w3.org/2000/svg">
<path d="M50 38.5877C49.6931 39.4009 49.4999 40.2837 49.0572 41.0137C47.9543 42.8333 46.2484 43.7002 44.1293 43.7553C43.6096 43.7687 43.0887 43.7589 42.5678 43.7589C30.4315 43.7589 18.2952 43.7589 6.15883 43.7589C3.63496 43.7589 1.72616 42.6951 0.607299 40.4097C-0.339151 38.4776 -0.144725 36.5652 0.949684 34.7322C5.66726 26.8353 10.3836 18.9373 15.1036 11.0416C16.7715 8.25117 18.3905 5.43017 20.133 2.68742C22.4038 -0.889282 27.6313 -0.902732 29.8763 2.68864C32.366 6.67009 34.7223 10.7359 37.1324 14.7675C41.0943 21.3939 45.066 28.0141 48.9936 34.6588C49.4546 35.4378 49.6698 36.3622 50 37.2194V38.5865V38.5877ZM25.0328 40.8315C29.6367 40.8315 34.2405 40.8315 38.8444 40.8315C40.5844 40.8315 42.3257 40.8315 44.0657 40.8315C44.9804 40.8315 45.7556 40.5063 46.3377 39.7983C47.2548 38.6831 47.3037 37.5055 46.5162 36.1873C41.6666 28.0667 36.8157 19.9461 31.9649 11.8267C30.4975 9.37126 29.0375 6.9122 27.5591 4.46293C26.801 3.20711 25.5195 2.68986 24.1817 3.06649C23.2927 3.31716 22.74 3.94568 22.2827 4.71238C17.8562 12.1397 13.4211 19.5609 8.98717 26.9845C7.14563 30.0684 5.30653 33.1536 3.45765 36.2326C2.94163 37.0922 2.77166 37.9849 3.15318 38.9313C3.65942 40.1884 4.64255 40.8303 6.04633 40.8303C12.3743 40.8328 18.7023 40.8303 25.0304 40.8315H25.0328Z" fill="white"/>
<path d="M29.3982 18.9165C29.3982 20.7703 29.4007 22.6241 29.3982 24.4778C29.397 25.6273 28.8394 26.1885 27.6985 26.191C25.8937 26.1934 24.0876 26.1946 22.2827 26.191C21.1969 26.1885 20.6173 25.6175 20.616 24.5439C20.6124 20.7703 20.6124 16.9979 20.616 13.2244C20.616 12.1446 21.1956 11.5577 22.2656 11.554C24.0876 11.5479 25.9083 11.5479 27.7303 11.554C28.8284 11.5577 29.397 12.141 29.3982 13.2562C29.4019 15.143 29.3982 17.0297 29.3982 18.9153V18.9165ZM23.5728 14.4924V23.2257H26.4292V14.4924H23.5728Z" fill="white"/>
<path d="M25.0303 37.9006C22.6581 37.925 20.6576 35.9526 20.6185 33.5486C20.5793 31.1678 22.6068 29.1233 25.0071 29.1233C27.3891 29.1233 29.3823 31.1116 29.3945 33.5009C29.4068 35.8781 27.4258 37.8761 25.0303 37.9018V37.9006ZM23.5459 33.5034C23.541 34.2982 24.2013 34.9671 24.9973 34.972C25.7934 34.9769 26.4623 34.3165 26.4671 33.5205C26.472 32.7232 25.8129 32.0568 25.0157 32.0519C24.2184 32.047 23.552 32.7049 23.5459 33.5034Z" fill="white"/>
</svg>
