<svg width="47" height="51" viewBox="0 0 47 51" fill="none" xmlns="http://www.w3.org/2000/svg">
<path d="M9.8438 50.3281C9.01405 49.9502 8.66196 49.3076 8.75429 48.4015C8.78261 48.1257 8.7149 47.8364 8.7666 47.568C8.95496 46.5943 8.59548 45.9726 7.66971 45.6119C7.41364 45.5121 7.24376 45.4789 7.00862 45.6229C6.45094 45.9652 5.88095 46.2877 5.30973 46.6078C4.39996 47.1175 3.6133 46.9205 3.09255 46.0317C2.14339 44.4079 1.20161 42.7779 0.273375 41.1418C-0.22275 40.2677 -0.00238679 39.4848 0.863063 38.9652C1.43798 38.6205 2.03259 38.3066 2.59889 37.9471C2.73184 37.8634 2.83402 37.664 2.86726 37.5015C3.06793 36.4969 2.73431 35.794 1.71866 35.4394C1.3555 35.3126 1.0268 35.0701 0.70056 34.8522C0.0357768 34.4078 -0.19936 33.6581 0.188431 32.9613C1.16714 31.2033 2.17293 29.4601 3.20335 27.7316C3.63053 27.0151 4.42458 26.8428 5.17923 27.2454C5.81447 27.5839 6.42139 27.9742 7.05909 28.3066C7.20805 28.3841 7.44688 28.3669 7.618 28.3139C8.60902 28.0025 8.87986 27.3205 8.78261 26.3073C8.67796 25.2202 8.7506 24.1147 8.76537 23.0178C8.76906 22.7531 8.65088 22.6436 8.45637 22.4823C7.66848 21.8274 6.94214 21.8815 6.17395 22.5106C5.87479 22.7556 5.5067 22.9243 5.15707 23.1015C4.39873 23.4869 3.62068 23.3071 3.18857 22.582C2.17663 20.8807 1.18684 19.1658 0.217977 17.4398C-0.207977 16.6815 0.0222347 15.9034 0.764576 15.4405C1.36165 15.0687 1.98827 14.745 2.58042 14.367C2.72323 14.2759 2.83156 14.0605 2.86726 13.8844C3.07039 12.8713 2.70476 12.1855 1.6965 11.8359C1.33334 11.7091 1.00341 11.4666 0.679632 11.2462C0.0370079 10.808 -0.195667 10.0681 0.181044 9.39222C1.16714 7.61947 2.18032 5.86148 3.22181 4.12074C3.64654 3.4104 4.44674 3.25775 5.20509 3.6677C5.83786 4.00994 6.44725 4.39527 7.08371 4.73135C7.22036 4.80399 7.44196 4.78798 7.59954 4.73628C8.57086 4.41989 8.94757 3.76003 8.77153 2.74069C8.70012 2.32705 8.7506 1.89125 8.76414 1.46529C8.79122 0.666322 9.35752 0.0310848 10.1466 0.0200051C12.1607 -0.00707872 14.176 -0.00584763 16.19 0.018774C16.9988 0.0286226 17.5762 0.662629 17.5996 1.49484C17.6193 2.24826 17.5885 3.00168 17.6193 3.7551C17.6267 3.9213 17.7658 4.11827 17.9 4.23769C18.6473 4.90247 19.3933 4.90247 20.1701 4.24384C20.4766 3.98409 20.8644 3.8142 21.2313 3.632C21.9712 3.26513 22.7381 3.44487 23.1604 4.15151C24.1822 5.86641 25.1806 7.59485 26.1544 9.33683C26.5656 10.0718 26.328 10.8437 25.6078 11.2967C25.0119 11.671 24.3816 11.9898 23.7932 12.3727C23.6418 12.4712 23.5396 12.7063 23.4953 12.8971C23.2503 13.9509 23.7661 14.5012 24.7066 14.9124C25.7358 15.363 26.6985 15.9724 27.6797 16.5288C27.9087 16.6581 28.0933 16.6864 28.2965 16.5116C28.358 16.4586 28.4282 16.4057 28.5033 16.3823C29.3133 16.1312 29.5263 15.5698 29.4155 14.7745C29.3527 14.3252 29.3958 13.8586 29.4069 13.4006C29.4278 12.5475 30.0077 11.9184 30.8473 11.9086C32.8293 11.8876 34.8113 11.8876 36.7922 11.9086C37.6293 11.9172 38.2202 12.5426 38.2436 13.3957C38.2633 14.1159 38.2313 14.8373 38.2633 15.5575C38.2707 15.7224 38.4147 15.9157 38.5501 16.0364C39.2999 16.7147 40.0471 16.6827 40.8203 16.0351C41.1169 15.7865 41.4875 15.6227 41.8371 15.4442C42.5979 15.0564 43.3772 15.2288 43.8081 15.9539C44.8299 17.6688 45.8283 19.3972 46.8008 21.1404C47.2108 21.8742 46.9695 22.6436 46.2456 23.0966C45.6633 23.461 45.0662 23.8045 44.4606 24.127C44.1873 24.2723 44.1651 24.4668 44.1159 24.745C43.9349 25.7718 44.3879 26.3504 45.3026 26.7012C45.619 26.8231 45.9046 27.0299 46.1964 27.2121C46.988 27.707 47.2194 28.4801 46.7664 29.2816C45.8086 30.9768 44.836 32.6633 43.8426 34.3388C43.3871 35.1083 42.593 35.3028 41.8014 34.8781C41.2105 34.5617 40.6233 34.2317 40.0607 33.8686C39.7492 33.6679 39.5018 33.6605 39.2346 33.903C39.2112 33.9252 39.1817 33.9449 39.1509 33.9535C38.2855 34.1985 38.1525 34.8251 38.2411 35.6093C38.2904 36.0464 38.2608 36.4932 38.2461 36.9352C38.2165 37.8093 37.6207 38.426 36.7515 38.4322C34.8027 38.4482 32.8527 38.447 30.9039 38.4322C30.0077 38.4248 29.418 37.8031 29.4057 36.8958C29.3958 36.1916 29.4217 35.4862 29.3897 34.7833C29.3823 34.6183 29.2358 34.425 29.1004 34.3044C28.3568 33.6421 27.6452 33.6938 26.8142 34.2625C25.8725 34.9051 24.8261 35.3951 23.8153 35.9343C23.5679 36.0661 23.5174 36.2273 23.4719 36.4994C23.2995 37.531 23.7144 38.1466 24.6672 38.5024C25.0292 38.6378 25.3603 38.8717 25.6829 39.0933C26.3243 39.534 26.552 40.269 26.1741 40.9485C25.188 42.7213 24.176 44.4793 23.1333 46.22C22.7086 46.9303 21.9059 47.0793 21.1476 46.6694C20.5296 46.3345 19.9214 45.9787 19.3219 45.6119C19.0966 45.474 18.939 45.5183 18.7014 45.6119C17.7843 45.9713 17.4039 46.5844 17.5996 47.5643C17.6501 47.8167 17.5861 48.0888 17.6107 48.3485C17.7006 49.2608 17.3706 49.9342 16.5286 50.333H9.84503L9.8438 50.3281ZM3.50496 9.48579C4.02325 9.78617 4.48121 10.0693 4.95641 10.3217C5.70983 10.7206 6.01391 11.3066 5.93265 12.1732C5.85879 12.9648 5.85879 13.7736 5.93265 14.564C6.01391 15.4307 5.70983 16.0154 4.95764 16.4155C4.47259 16.6741 4.00601 16.9658 3.50619 17.2576C4.01217 18.1304 4.49229 18.9565 4.98226 19.8022C5.53378 19.4846 6.0336 19.2089 6.52234 18.9109C7.21913 18.4862 7.85314 18.5441 8.52777 19.0094C9.19625 19.4711 9.90781 19.881 10.6391 20.2344C11.3593 20.5827 11.72 21.0936 11.7089 21.8865C11.7015 22.4712 11.7077 23.0572 11.7077 23.658H14.6561C14.6561 23.056 14.6696 22.4848 14.6524 21.9148C14.6265 21.0715 15.0205 20.5581 15.7825 20.206C16.4892 19.8798 17.1687 19.4723 17.8064 19.0254C18.4737 18.5576 19.1077 18.4751 19.8106 18.8974C20.3671 19.2323 20.9358 19.5499 21.5366 19.897C22.0364 19.0316 22.5153 18.2006 23.0077 17.3475C22.4119 17.0003 21.8505 16.6654 21.283 16.3429C20.6096 15.9613 20.3585 15.4073 20.4188 14.6268C20.4828 13.8007 20.4902 12.9624 20.4212 12.1375C20.3548 11.3361 20.6096 10.771 21.3027 10.382C21.8136 10.0952 22.3171 9.79356 22.8526 9.48209C22.3553 8.62157 21.8764 7.79305 21.3815 6.93622C20.8435 7.24399 20.34 7.51359 19.8562 7.81521C19.1212 8.27194 18.4651 8.18453 17.7695 7.68471C17.1638 7.24891 16.5039 6.87466 15.8305 6.54966C14.9466 6.1237 14.661 5.75315 14.6573 4.77444C14.6561 4.1749 14.6573 3.57537 14.6573 2.97337H11.7089C11.7089 3.59753 11.6978 4.19952 11.7113 4.80029C11.7298 5.63373 11.3642 6.16679 10.5948 6.52011C9.88688 6.84512 9.2024 7.24522 8.5684 7.69826C7.86545 8.19931 7.20805 8.25717 6.48048 7.8029C5.99913 7.50251 5.49685 7.23537 4.97733 6.93745C4.48244 7.79551 4.00847 8.61418 3.50619 9.48579H3.50496ZM43.4942 29.0501C42.9352 28.7239 42.4305 28.4235 41.9184 28.1342C41.2425 27.7513 41 27.1937 41.0615 26.4144C41.1268 25.5883 41.1305 24.75 41.0615 23.9239C40.9951 23.1212 41.2585 22.5599 41.9504 22.1721C42.46 21.8865 42.9623 21.5861 43.4917 21.2771C42.9906 20.4092 42.5118 19.5806 42.0193 18.7287C41.501 19.0267 41.0357 19.295 40.5691 19.5622C39.6532 20.0879 39.21 20.0312 38.3642 19.4366C37.7795 19.0254 37.1516 18.6623 36.5053 18.3582C35.5734 17.9187 35.3013 17.558 35.2989 16.5054C35.2989 15.9563 35.2989 15.4073 35.2989 14.8705H32.3504C32.3504 15.4688 32.3406 16.0388 32.3529 16.6088C32.3701 17.4447 31.9909 17.9716 31.224 18.3213C30.5309 18.6376 29.8575 19.0267 29.2395 19.4735C28.5254 19.9894 27.857 20.062 27.1097 19.5905C26.632 19.2889 26.1298 19.0267 25.6152 18.7337C25.1117 19.6102 24.6352 20.4375 24.1514 21.2795C24.7202 21.6119 25.2274 21.9111 25.7371 22.2029C26.3723 22.566 26.6259 23.0954 26.584 23.8353C26.5348 24.7118 26.5299 25.5957 26.584 26.4722C26.6296 27.233 26.3674 27.7698 25.7137 28.1404C25.1449 28.4617 24.5835 28.7953 23.9901 29.1412C24.4838 29.9956 24.9627 30.8266 25.4613 31.6883C26.0362 31.3584 26.5828 31.0691 27.1048 30.7404C27.8508 30.2701 28.5193 30.3341 29.2346 30.8512C29.8526 31.2968 30.5247 31.6896 31.2191 32.0035C32.0094 32.3605 32.3787 32.9083 32.3541 33.7615C32.3381 34.3278 32.3504 34.8941 32.3504 35.4604H35.2989C35.2989 34.867 35.3136 34.2982 35.2952 33.7295C35.2681 32.8911 35.6423 32.3642 36.4081 32.0109C37.1147 31.6846 37.7967 31.2821 38.4332 30.8315C39.1177 30.3489 39.7615 30.2689 40.4792 30.7084C40.9778 31.0137 41.4924 31.2919 42.023 31.596C42.5204 30.7355 42.9931 29.9156 43.4929 29.0501H43.4942ZM22.8526 40.8426C22.2728 40.5078 21.7471 40.2086 21.2276 39.9021C20.5985 39.5303 20.3622 38.9899 20.4151 38.2525C20.4742 37.4264 20.5 36.5868 20.4237 35.7632C20.3449 34.9162 20.6244 34.3388 21.3532 33.9387C21.8505 33.6654 22.3368 33.3724 22.8526 33.0733C22.3491 32.2029 21.8702 31.3756 21.3778 30.525C20.846 30.8303 20.3658 31.106 19.8845 31.3818C19.0215 31.8742 18.5599 31.8164 17.7609 31.2648C17.1453 30.8413 16.4978 30.4437 15.8182 30.1396C15.0143 29.7789 14.613 29.2409 14.6499 28.3558C14.6746 27.7907 14.6549 27.2244 14.6549 26.6643H11.7064C11.7064 27.2749 11.7003 27.8609 11.7077 28.4457C11.7175 29.2385 11.3531 29.7494 10.6329 30.0941C9.9152 30.4376 9.21225 30.834 8.56224 31.2907C7.87653 31.772 7.23391 31.8533 6.51742 31.415C6.02006 31.111 5.5067 30.8315 4.97364 30.5262C4.47259 31.3966 3.99493 32.2251 3.50496 33.0758C4.02325 33.3761 4.48244 33.6593 4.95764 33.9117C5.71106 34.3105 6.01267 34.8965 5.93142 35.7632C5.85756 36.5536 5.85756 37.3624 5.93142 38.154C6.01267 39.0206 5.7086 39.6054 4.95641 40.0055C4.47136 40.264 4.00478 40.5558 3.50496 40.8476C4.01094 41.7204 4.48983 42.5465 4.98103 43.391C5.51655 43.0832 6.00775 42.8222 6.47679 42.5255C7.22529 42.0528 7.89746 42.134 8.6041 42.656C9.16424 43.0709 9.77609 43.4365 10.4089 43.7295C11.4553 44.2146 11.7077 44.5408 11.7077 45.7177C11.7077 46.2668 11.7077 46.8146 11.7077 47.3477H14.6561C14.6561 46.7321 14.6758 46.1449 14.6512 45.5601C14.6142 44.675 15.0156 44.1358 15.8207 43.7775C16.4867 43.4809 17.1256 43.0992 17.7239 42.6819C18.5562 42.1008 19.008 42.0368 19.8857 42.5366C20.3782 42.8161 20.8694 43.0968 21.3827 43.3885C21.8825 42.5231 22.354 41.7032 22.8514 40.8426H22.8526ZM17.6058 25.1673C17.6058 25.56 17.6587 25.9613 17.5959 26.343C17.4396 27.3008 17.7326 27.952 18.6805 28.3029C18.9316 28.3964 19.1015 28.4457 19.3453 28.3078C20.34 27.7439 21.3138 27.1272 22.3565 26.6692C23.27 26.2679 23.6922 25.7274 23.5334 24.7167C23.4866 24.4237 23.4239 24.2575 23.1629 24.1184C22.1681 23.5903 21.1414 23.1028 20.2095 22.4774C19.3724 21.916 18.6423 21.8101 17.8828 22.5131C17.7596 22.6276 17.6255 22.8061 17.6205 22.9587C17.5935 23.6937 17.6082 24.4299 17.6082 25.1661L17.6058 25.1673Z" fill="white"/>
<path d="M8.76282 13.3465C8.78129 10.9311 10.7855 8.94042 13.1886 8.94904C15.5941 8.95765 17.5983 10.9643 17.6008 13.3662C17.6032 15.7803 15.5448 17.8227 13.1442 17.7882C10.7202 17.7525 8.74436 15.7495 8.76282 13.3465ZM13.1762 14.8398C13.9765 14.841 14.6511 14.1713 14.6523 13.3711C14.6535 12.5721 13.9814 11.8987 13.1812 11.8975C12.3748 11.8962 11.7125 12.5573 11.7113 13.3662C11.7113 14.175 12.3687 14.8373 13.1762 14.8398Z" fill="white"/>
<path d="M29.4044 25.1858C29.386 22.7827 31.3631 20.7797 33.7871 20.7452C36.1877 20.7108 38.2473 22.7544 38.2436 25.1673C38.2399 27.5691 36.2345 29.5758 33.8302 29.5832C31.4259 29.5918 29.4229 27.5999 29.4057 25.1858H29.4044ZM33.824 23.6937C33.0176 23.6912 32.3541 24.3523 32.3529 25.1599C32.3504 25.9687 33.009 26.6323 33.8154 26.6347C34.6156 26.6372 35.2915 25.9675 35.2939 25.1685C35.2964 24.3695 34.6254 23.6961 33.824 23.6937Z" fill="white"/>
<path d="M8.76328 36.9413C8.77805 34.5272 10.7798 32.5353 13.1853 32.5402C15.5872 32.5452 17.5938 34.5494 17.6012 36.9537C17.6098 39.3641 15.5515 41.4102 13.1484 41.3794C10.7269 41.3486 8.74728 39.3456 8.76328 36.9413ZM14.6528 36.9537C14.6491 36.1535 13.9732 35.485 13.173 35.4887C12.3667 35.4924 11.7093 36.1571 11.7117 36.966C11.7142 37.7736 12.379 38.4346 13.1853 38.431C13.9855 38.4273 14.6565 37.7526 14.6528 36.9537Z" fill="white"/>
</svg>
