<svg width="50" height="50" viewBox="0 0 50 50" fill="none" xmlns="http://www.w3.org/2000/svg">
<path d="M44.8221 50.0074H43.4549C41.552 49.7359 40.2288 48.557 38.9349 47.2497C34.1043 42.369 29.2346 37.5262 24.3796 32.6699C24.2475 32.5378 24.1081 32.4119 23.9503 32.2639C22.6381 33.5773 21.3577 34.8492 20.0981 36.1406C20.0002 36.2409 20.0027 36.4855 20.0308 36.6506C20.1739 37.5299 20.4478 38.4018 20.4821 39.2848C20.6594 43.9539 17.9482 47.9015 13.537 49.4363C12.7935 49.6956 12.0023 49.8191 11.233 50.0062H9.37785C9.25311 49.9769 9.12714 49.9512 9.00241 49.9169C7.98982 49.632 6.96989 49.3715 5.96953 49.0499C5.3544 48.8518 5.03521 48.3565 5.00831 47.7108C4.98752 47.2057 5.25412 46.8217 5.60265 46.4756C7.14844 44.9408 8.68689 43.3987 10.1642 41.9239C9.45734 41.2194 8.77494 40.5395 8.07787 39.8436C6.57366 41.3515 5.02787 42.912 3.46863 44.459C2.56244 45.3578 1.42634 45.134 0.912706 43.9649C0.150819 42.2308 -0.126787 40.4294 0.0847802 38.5375C0.785521 32.2615 7.20347 28.0497 13.224 29.9501C13.5896 30.0651 13.8 30.01 14.0641 29.7434C16.192 27.5911 18.337 25.4558 20.476 23.3133C20.5983 23.191 20.7144 23.0626 20.8306 22.939C20.7695 22.862 20.7438 22.8204 20.7095 22.7862C17.5006 19.5748 14.2928 16.3621 11.0728 13.1605C10.9273 13.0162 10.6864 12.9293 10.4773 12.8951C8.85688 12.6322 7.23404 12.3827 5.60999 12.1418C5.10859 12.0672 4.7307 11.8275 4.45065 11.4141C3.08219 9.39751 1.71006 7.3809 0.35138 5.35327C-0.175704 4.56693 -0.110889 3.92244 0.553163 3.24371C1.44101 2.3363 2.33742 1.43744 3.24606 0.550817C3.9358 -0.123019 4.61941 -0.179274 5.39353 0.385721C7.40526 1.85079 9.40475 3.33177 11.4128 4.80295C11.8323 5.10991 12.0548 5.51226 12.1184 6.02956C12.2921 7.43348 12.4719 8.83741 12.681 10.2352C12.7177 10.4835 12.8522 10.7611 13.0283 10.9384C16.2165 14.1474 19.4181 17.3441 22.6173 20.5421C22.7164 20.6412 22.8264 20.728 22.9218 20.8124C22.9842 20.7781 23.0172 20.7671 23.0392 20.7463C25.3188 18.4692 27.6008 16.1946 29.8644 13.9016C29.9794 13.7854 30.0075 13.4894 29.9549 13.3146C29.5 11.8104 29.3777 10.2829 29.6064 8.73101C30.5835 2.09294 37.6643 -1.8229 43.8315 0.858996C45.1816 1.446 45.3883 2.53197 44.3464 3.57758C43.2555 4.6721 42.1622 5.7654 41.0677 6.85748C40.6336 7.28918 40.1933 7.71476 39.7958 8.10487C40.5186 8.8264 41.1937 9.50146 41.8761 10.1826C41.8663 10.19 41.8969 10.1753 41.9189 10.1521C43.4267 8.64541 44.9334 7.13753 46.4437 5.6321C47.4636 4.61585 48.6193 4.80785 49.1158 6.15674C49.4986 7.19746 49.7114 8.29932 50 9.37428V11.2295C49.9523 11.4655 49.9022 11.7003 49.8581 11.9375C48.6964 18.1831 42.737 21.8335 36.6517 20.015C36.3692 19.9306 36.2114 19.9942 36.0207 20.1874C34.8662 21.3578 33.6995 22.5159 32.539 23.6789C32.4497 23.7682 32.3727 23.8685 32.2149 24.0507C32.3873 24.1803 32.561 24.2806 32.698 24.4176C37.8098 29.5245 42.9192 34.6339 48.025 39.747C48.3111 40.0344 48.5802 40.3414 48.8358 40.6569C49.4974 41.475 49.7835 42.4546 50 43.4599V44.8271C49.9694 44.9335 49.9278 45.0387 49.9083 45.1475C49.6123 46.7948 48.7869 48.1351 47.3683 48.9985C46.6003 49.4657 45.6782 49.6772 44.8245 50.0038L44.8221 50.0074ZM33.6078 6.29982C33.5834 6.33651 33.5344 6.40133 33.4941 6.47103C32.2442 8.62584 32.073 10.8626 33.0404 13.158C33.406 14.0263 33.2507 14.6916 32.5879 15.3532C26.8242 21.0949 21.0728 26.8488 15.3311 32.6124C14.6842 33.2618 14.0299 33.3939 13.1726 33.0625C12.4535 32.7849 11.6855 32.5745 10.9212 32.4828C9.23965 32.2822 7.68775 32.7176 6.29361 33.6104C9.6738 36.9918 13.0307 40.3487 16.3914 43.7093C16.4158 43.6714 16.4647 43.6066 16.5051 43.5381C17.7549 41.3833 17.9261 39.1466 16.9588 36.8511C16.5931 35.9828 16.7472 35.3176 17.4113 34.656C23.175 28.9143 28.9264 23.1604 34.6681 17.3967C35.315 16.7473 35.9693 16.6153 36.8266 16.9467C37.5457 17.2243 38.3137 17.4346 39.078 17.5251C40.7595 17.7257 42.3114 17.2903 43.7043 16.3988C40.3229 13.0174 36.9672 9.66044 33.6066 6.29982H33.6078ZM30.2814 34.4212C30.3475 34.4921 30.4135 34.5642 30.482 34.6327C34.289 38.4422 38.0972 42.2504 41.9066 46.0574C42.0668 46.2176 42.2405 46.368 42.4227 46.5037C43.6469 47.4173 45.4079 47.2008 46.374 46.0231C47.4098 44.7598 47.2826 43.1492 46.034 41.8994C42.2515 38.1107 38.4653 34.327 34.6803 30.542C34.5813 30.443 34.47 30.3549 34.4039 30.2962C33.0208 31.6806 31.6658 33.0368 30.2827 34.4212H30.2814ZM3.3867 4.61585C4.18038 5.79108 5.03766 6.92352 5.73962 8.144C6.27037 9.06732 6.9491 9.5357 7.9996 9.56383C8.53891 9.57851 9.07456 9.70202 9.64934 9.78151C9.5246 8.84597 9.4182 7.99236 9.29102 7.1412C9.269 6.99812 9.19318 6.82202 9.08312 6.73886C7.58503 5.62232 6.07715 4.51923 4.56071 3.40636C4.17304 3.80504 3.8025 4.1866 3.3867 4.61462V4.61585ZM28.1437 32.1734C29.4804 30.8465 30.8464 29.4903 32.1819 28.1646C31.519 27.4981 30.8354 26.8121 30.1836 26.1578C28.8469 27.4957 27.4858 28.858 26.1565 30.1886C26.8108 30.8429 27.4956 31.5265 28.145 32.1746L28.1437 32.1734ZM12.3349 44.0175C11.3566 44.9983 10.3623 45.9962 9.34483 47.0161C11.1083 47.2302 12.736 46.8413 14.217 45.9057C13.5762 45.2625 12.9476 44.6314 12.3337 44.0175H12.3349ZM37.6459 5.99042C38.6365 4.99862 39.6308 4.00316 40.6421 2.99057C38.8872 2.78267 37.2583 3.17034 35.77 4.112C36.4157 4.75893 37.0467 5.38996 37.6459 5.99042ZM47.0112 9.3914C45.9986 10.3905 44.9884 11.3872 44.0113 12.3521C44.6142 12.9538 45.2452 13.5848 45.8909 14.2293C46.8289 12.7422 47.2191 11.1133 47.0112 9.39262V9.3914ZM4.12657 35.7493C3.17146 37.2743 2.7789 38.8995 2.98558 40.597C3.9896 39.5991 4.99485 38.5987 5.99277 37.6057C5.41554 37.0321 4.79307 36.4133 4.12535 35.7505L4.12657 35.7493Z" fill="white"/>
</svg>
