<svg width="630" height="820" viewBox="0 0 630 820" fill="none" xmlns="http://www.w3.org/2000/svg">
<mask id="mask0_20_118" style="mask-type:alpha" maskUnits="userSpaceOnUse" x="229" y="546" width="677" height="274">
<rect x="229.333" y="546.667" width="676.5" height="273.333" fill="#D9D9D9"/>
</mask>
<g mask="url(#mask0_20_118)">
<rect width="136.667" height="611.021" transform="matrix(-0.707107 -0.707107 -0.707107 0.707107 867.603 535.902)" fill="url(#paint0_linear_20_118)"/>
</g>
<mask id="mask1_20_118" style="mask-type:alpha" maskUnits="userSpaceOnUse" x="434" y="0" width="971" height="547">
<rect x="434.333" width="970.333" height="546.667" fill="#D9D9D9"/>
</mask>
<g mask="url(#mask1_20_118)">
<rect width="136.667" height="949.736" transform="matrix(-0.707107 -0.707107 -0.707107 0.707107 1225.84 -13.67)" fill="url(#paint1_linear_20_118)"/>
</g>
<mask id="mask2_20_118" style="mask-type:alpha" maskUnits="userSpaceOnUse" x="51" y="0" width="1132" height="547">
<rect x="51.6667" width="1130.92" height="546.667" fill="#D9D9D9"/>
</mask>
<g mask="url(#mask2_20_118)">
<rect width="136.667" height="961.912" transform="matrix(-0.707107 -0.707107 -0.707107 0.707107 851.784 -22.2801)" fill="url(#paint2_linear_20_118)"/>
</g>
<mask id="mask3_20_118" style="mask-type:alpha" maskUnits="userSpaceOnUse" x="-154" y="546" width="678" height="274">
<rect x="-153.333" y="546.667" width="676.5" height="273.333" fill="#D9D9D9"/>
</mask>
<g mask="url(#mask3_20_118)">
<rect width="136.667" height="615.307" transform="matrix(-0.707107 -0.707107 -0.707107 0.707107 484.224 536.614)" fill="url(#paint3_linear_20_118)"/>
</g>
<mask id="mask4_20_118" style="mask-type:alpha" maskUnits="userSpaceOnUse" x="-536" y="546" width="677" height="274">
<rect x="-536" y="546.667" width="676.5" height="273.333" fill="#D9D9D9"/>
</mask>
<g mask="url(#mask4_20_118)">
<rect width="136.667" height="567.336" transform="matrix(-0.707107 -0.707107 -0.707107 0.707107 101.557 536.614)" fill="url(#paint4_linear_20_118)"/>
</g>
<defs>
<linearGradient id="paint0_linear_20_118" x1="68.3333" y1="0" x2="68.3333" y2="611.021" gradientUnits="userSpaceOnUse">
<stop stop-color="#001E47"/>
<stop offset="1" stop-color="#001E47" stop-opacity="0"/>
</linearGradient>
<linearGradient id="paint1_linear_20_118" x1="68.3333" y1="0" x2="68.3333" y2="949.736" gradientUnits="userSpaceOnUse">
<stop stop-color="#001E47"/>
<stop offset="1" stop-color="#001E47" stop-opacity="0"/>
</linearGradient>
<linearGradient id="paint2_linear_20_118" x1="68.3333" y1="0" x2="68.3333" y2="961.912" gradientUnits="userSpaceOnUse">
<stop stop-color="#001E47"/>
<stop offset="1" stop-color="#001E47" stop-opacity="0"/>
</linearGradient>
<linearGradient id="paint3_linear_20_118" x1="68.3333" y1="0" x2="68.3333" y2="615.307" gradientUnits="userSpaceOnUse">
<stop stop-color="#001E47"/>
<stop offset="1" stop-color="#001E47" stop-opacity="0"/>
</linearGradient>
<linearGradient id="paint4_linear_20_118" x1="68.3333" y1="0" x2="68.3333" y2="567.336" gradientUnits="userSpaceOnUse">
<stop stop-color="#001E47"/>
<stop offset="1" stop-color="#001E47" stop-opacity="0"/>
</linearGradient>
</defs>
</svg>
